<svg xmlns="http://www.w3.org/2000/svg" width="151" height="98">
  <title>Cloud</title>
  <path d="M104.794 978.866c0 13.529-13.794 24.496-30.81 24.496s-30.809-10.967-30.809-24.496 13.794-24.496 30.81-24.496 30.81 10.967 30.81 24.496" style="fill:#729fcf;fill-opacity:1;fill-rule:nonzero;stroke:none" transform="translate(0 -954.362)"/>
  <path d="M103.424 979.71c0 13.43-13.234 24.317-29.56 24.317-16.325 0-29.56-10.887-29.56-24.317s13.235-24.318 29.56-24.318c16.326 0 29.56 10.888 29.56 24.318" style="fill:#eeeeec;fill-opacity:1;fill-rule:nonzero;stroke:none" transform="translate(0 -954.362)"/>
  <path d="M106.057 1009.928c0 12.274-11.193 22.223-25.001 22.223s-25.001-9.95-25.001-22.223 11.193-22.223 25-22.223c13.809 0 25.002 9.95 25.002 22.223" style="fill:#eeeeec;fill-opacity:1;fill-rule:nonzero;stroke:none" transform="translate(0 -954.362)"/>
  <path d="M125.755 992.756c0 12.273-11.193 22.223-25.001 22.223s-25.001-9.95-25.001-22.223 11.193-22.224 25-22.224c13.809 0 25.002 9.95 25.002 22.224m-55.558 7.071c0 12.273-11.194 22.223-25.002 22.223s-25-9.95-25-22.223 11.193-22.224 25-22.224 25.002 9.95 25.002 22.224" style="fill:#729fcf;fill-opacity:1;fill-rule:nonzero;stroke:none" transform="translate(0 -954.362)"/>
  <path d="M72.616 1000.96c0 12.273-11.474 22.223-25.627 22.223s-25.626-9.95-25.626-22.223 11.473-22.224 25.626-22.224 25.627 9.95 25.627 22.224" style="fill:#eeeeec;fill-opacity:1;fill-rule:nonzero;stroke:none" transform="translate(0 -954.362)"/>
  <path d="M40.397 1019.272c0 9.903-8.932 17.93-19.95 17.93-11.019 0-19.95-8.027-19.95-17.93s8.931-17.93 19.95-17.93 19.95 8.027 19.95 17.93" style="fill:#729fcf;fill-opacity:1;fill-rule:nonzero;stroke:none" transform="translate(0 -954.362)"/>
  <path d="M40.958 1019.699c0 9.305-8.772 16.848-19.594 16.848-10.82 0-19.593-7.543-19.593-16.848s8.772-16.848 19.593-16.848 19.594 7.543 19.594 16.848m85.229-24.811c0 12.866-11.393 23.295-25.448 23.295s-25.447-10.43-25.447-23.295 11.393-23.294 25.447-23.294c14.055 0 25.448 10.429 25.448 23.294" style="fill:#eeeeec;fill-opacity:1;fill-rule:nonzero;stroke:none" transform="translate(0 -954.362)"/>
  <path d="M150.504 1000.332c0 12.273-11.194 22.223-25.001 22.223s-25.002-9.95-25.002-22.223 11.194-22.224 25.002-22.224 25 9.95 25 22.224" style="fill:#729fcf;fill-opacity:1;fill-rule:nonzero;stroke:none" transform="translate(0 -954.362)"/>
  <path d="M149.759 1000.246c0 11.583-11.274 20.973-25.18 20.973s-25.18-9.39-25.18-20.974 11.273-20.973 25.18-20.973 25.18 9.39 25.18 20.973" style="fill:#eeeeec;fill-opacity:1;fill-rule:nonzero;stroke:none" transform="translate(0 -954.362)"/>
  <path d="M41.912 1033.667c0 6.555-5.2 11.87-11.616 11.87s-11.617-5.315-11.617-11.87 5.2-11.87 11.617-11.87c6.415 0 11.616 5.314 11.616 11.87" style="fill:#729fcf;fill-opacity:1;fill-rule:nonzero;stroke:none" transform="translate(0 -954.362)"/>
  <path d="M42.267 1032.924c0 6.457-5.121 11.69-11.438 11.69s-11.438-5.233-11.438-11.69 5.12-11.69 11.438-11.69c6.317 0 11.438 5.233 11.438 11.69" style="fill:#eeeeec;fill-opacity:1;fill-rule:nonzero;stroke:none" transform="translate(0 -954.362)"/>
  <path d="M84.339 1030.131c0 12.274-11.194 22.224-25.001 22.224s-25.002-9.95-25.002-22.224c0-12.273 11.194-22.223 25.002-22.223s25 9.95 25 22.223" style="fill:#729fcf;fill-opacity:1;fill-rule:nonzero;stroke:none" transform="translate(0 -954.362)"/>
  <path d="M84.475 1029.554c0 12.015-10.93 21.754-24.413 21.754s-24.413-9.74-24.413-21.754 10.93-21.754 24.413-21.754 24.413 9.74 24.413 21.754" style="fill:#eeeeec;fill-opacity:1;fill-rule:nonzero;stroke:none" transform="translate(0 -954.362)"/>
  <path d="M139.392 1020.03c0 12.273-11.193 22.223-25.001 22.223s-25.001-9.95-25.001-22.223 11.193-22.224 25-22.224c13.809 0 25.002 9.95 25.002 22.224" style="fill:#729fcf;fill-opacity:1;fill-rule:nonzero;stroke:none" transform="translate(0 -954.362)"/>
  <path d="M138.062 1019.754c0 11.806-11.213 21.376-25.046 21.376s-25.046-9.57-25.046-21.376c0-11.805 11.214-21.375 25.046-21.375 13.833 0 25.046 9.57 25.046 21.375" style="fill:#eeeeec;fill-opacity:1;fill-rule:nonzero;stroke:none" transform="translate(0 -954.362)"/>
  <path d="M90.958 1047.975c-7.971 1.318-15.502-3.805-16.82-11.443s4.076-14.898 12.048-16.216c7.971-1.319 15.502 3.804 16.82 11.442s-4.076 14.899-12.048 16.217" style="fill:#729fcf;fill-opacity:1;fill-rule:nonzero;stroke:none" transform="translate(0 -954.362)"/>
  <path d="M91.268 1046.578c-7.837 1.318-15.242-3.805-16.537-11.443-1.296-7.638 4.007-14.898 11.845-16.217s15.242 3.805 16.538 11.443-4.008 14.898-11.846 16.217" style="fill:#eeeeec;fill-opacity:1;fill-rule:nonzero;stroke:none" transform="translate(0 -954.362)"/>
</svg>
