<svg width="100" height="100" viewBox="0 0 26.458 26.458" xmlns="http://www.w3.org/2000/svg">
  <path d="M733.141 738.573c4.451 2.532 6.858 8.124 8.709 12.667l.416 1.002c.866 2.222 1.482 4.476 2.033 6.792.066.277.133.554.2.84 3.105 13.583-.42 27.672-7.003 39.66l-.75 1.41c-1.966 3.586-4.282 6.832-6.771 10.07l-.801 1.044a129 129 0 0 1-2.366 2.914l-.509.616c-2.748 3.318-5.674 6.43-8.72 9.478l-1.002 1.003a109 109 0 0 1-5.999 5.528l-1.368 1.185c-5.613 4.83-11.38 9.468-17.212 14.03a416 416 0 0 0-6.767 5.432 298 298 0 0 1-5.207 4.143 175 175 0 0 0-6.02 4.935 170 170 0 0 1-4.685 3.84 526 526 0 0 0-4.115 3.323l-8.192 6.66q-1.317 1.071-2.641 2.13c-6.081 4.892-11.817 10.318-16.629 16.47l-.988 1.208c-5.056 6.247-8.15 12.776-7.324 20.96 1.847 9.919 9.868 17.345 17.417 23.354q1.065.877 2.127 1.757c2.037 1.668 4.115 3.273 6.207 4.87l1.166.895 1.141.759c.838.824.838.824 1.066 2.005-.286 1.5-.72 1.906-1.885 2.876l-1.1.925a259 259 0 0 1-4.99 3.881 202 202 0 0 0-3.472 2.701q-1.38 1.092-2.768 2.173-.649.505-1.294 1.013-.879.684-1.765 1.356l-1.003.772c-1.118.634-1.663.662-2.93.54-.761-.434-.761-.434-1.485-1.046l-.82-.684-.862-.745-.9-.76a183 183 0 0 1-7.809-7.058l-1.044-.98c-2.718-2.62-5.01-5.505-7.269-8.52l-.765-1.011c-8.909-12.222-12.486-26.787-10.243-41.751 2.056-10.765 7.396-20.302 14.57-28.49l.831-.962c3.42-3.885 7.088-7.579 11.045-10.914l1.271-1.096a325 325 0 0 1 7.429-6.243 690 690 0 0 0 3.576-2.935c8.936-7.373 8.936-7.373 13.43-10.879 2.968-2.316 5.866-4.716 8.766-7.117q1.539-1.27 3.084-2.532l1.027-.84 2.053-1.672a491 491 0 0 0 7.793-6.505q1.613-1.37 3.23-2.734l1.287-1.09q1.278-1.082 2.558-2.162 1.61-1.36 3.217-2.724a791 791 0 0 1 1.99-1.677c7.37-6.225 14.346-12.832 20.042-20.65l.72-.964c5.97-8.214 9.858-17.211 12.244-27.043l.238-.976c1.246-5.368 1.625-10.746 1.852-16.23q.055-1.281.123-2.561l.066-1.514c.21-1.482.608-2.482 1.383-3.756 1.116-.558 1.93-.499 3.166-.396" fill="#22c55e" style="fill:#22c55e;stroke-width:.395847" transform="matrix(.17312 0 0 .07682 -102.626 -56.733)"/>
  <path d="M694.32 852.603a27 27 0 0 1 2.598 2.103l.732.65q1.111.991 2.212 1.998l1.307 1.173c2.27 2.05 4.468 4.164 6.61 6.348l.953.95c7.404 7.426 13.878 16.445 16.464 26.759l.23.882c2.05 8.138 2.282 17.092.166 25.244l-.238.945c-1.227 4.748-2.913 9.03-5.304 13.305l-.4.74c-4.894 9.013-12.515 16.774-20.58 23.011q-1.15.934-2.293 1.874a288 288 0 0 1-7.858 6.2c-2.362 1.818-4.655 3.723-6.963 5.608q-1.333 1.083-2.678 2.152a490 490 0 0 0-4.228 3.414 549 549 0 0 1-8.947 7.138q-1.726 1.351-3.45 2.709l-4.213 3.307a2435 2435 0 0 0-4.1 3.224l-1.047.825c-5.371 4.26-10.645 8.702-15.372 13.678-.603.54-.603.54-1.394.54l-.283.678c-.625 1.112-1.39 1.833-2.315 2.711-1.766 1.728-3.332 3.537-4.87 5.468a51 51 0 0 1-2.33 2.647c-12.19 13.62-19.022 30.708-20.806 48.752-.338 1.363-.87 2.088-1.856 3.079-1.512.175-2.346-.069-3.556-1-2.596-2.621-3.872-5.898-5.152-9.292l-.409-1.08c-4.812-14.387-.893-31.246 5.555-44.442 6.54-12.78 16.816-24.563 27.758-33.808.902-.767 1.773-1.565 2.648-2.363 2.077-1.873 4.232-3.636 6.407-5.393l1.503-1.23a334 334 0 0 1 8.707-6.902c2.057-1.57 4.084-3.178 6.116-4.78a729 729 0 0 1 2.055-1.61 494 494 0 0 0 8.157-6.524 300 300 0 0 1 5.105-4.066c2.412-1.88 4.774-3.818 7.13-5.767a373 373 0 0 1 7.333-5.912c2.067-1.633 4.05-3.33 5.996-5.106.856-.777 1.724-1.535 2.6-2.29q.756-.666 1.509-1.336l.686-.606c4.784-4.476 8.598-10.984 8.913-17.604.094-4.172-.442-7.731-2.227-11.503l-.41-.868c-1.639-3.309-3.828-6.166-6.17-9.003l-.847-1.026c-4.466-5.133-9.408-9.99-14.83-14.102a168 168 0 0 1-1.988-1.547l-1.203-.919c-1.177-1.287-1.376-2.048-1.32-3.782.676-.869.676-.869 1.73-1.633l1.218-.912.68-.492c1.054-.765 2.086-1.558 3.12-2.35q.85-.652 1.704-1.3a226 226 0 0 0 6.985-5.565c2.771-2.279 2.771-2.279 4.75-1.999" fill="#2b86c1" style="fill:#f755f5;stroke-width:.395847" transform="matrix(.17312 0 0 .07682 -102.626 -56.733)"/>
  <path d="m643.521 912.675 1.492-.007c1.626-.005 3.253.002 4.88.01l3.392-.002q3.556 0 7.111.015 4.105.017 8.21.007 3.956-.006 7.91.004 1.68.003 3.36 0a707 707 0 0 1 4.698.016l1.403-.006c3.126.031 5.036.458 7.385 2.654 1.22 1.9 1.206 2.693.924 4.917-.777 1.8-1.883 2.796-3.478 3.912-1.254.418-2.053.492-3.357.499l-1.28.009-1.402.003-1.478.009q-2.426.012-4.852.018l-1.672.005q-3.93.012-7.857.018-4.53.007-9.061.033-3.928.02-7.855.022-1.669.003-3.338.015-2.335.013-4.67.007l-1.394.017c-3.15-.022-4.594-.541-6.906-2.693-.816-1.589-1.053-3.138-.95-4.918 2.025-4.13 4.54-4.603 8.785-4.565z" fill="#198a42" style="fill:#f755f5;stroke-width:.434677" transform="matrix(.17312 0 0 .07682 -102.626 -56.733)"/>
  <path d="m656.684 891.998.792-.008q1.29-.009 2.58-.01.903-.002 1.804-.006 1.889-.006 3.777-.005 2.412-.002 4.824-.023 1.862-.011 3.724-.009.889 0 1.778-.01c5.772-.05 5.772-.05 8.245 1.65.927 1.072 1.087 1.7 1.266 3.107-.23 1.865-.994 2.958-2.393 4.187-1.47.901-2.756.858-4.443.87q-.397.005-.805.008-1.32.01-2.64.015l-.911.005q-2.39.012-4.777.016-2.464.008-4.928.032-1.898.014-3.795.014-.907.003-1.816.013-1.273.012-2.545.006l-1.462.007c-1.822-.25-2.944-1.05-4.193-2.368-.795-1.412-.69-2.875-.426-4.438.608-1.226 1.43-2 2.66-2.628 1.265-.393 2.359-.416 3.684-.424z" fill="#22c55e" style="stroke-width:.368134" transform="matrix(.17312 0 0 .07682 -102.626 -56.733)"/>
  <path d="m94.973 88.768-.061-.153c-.295.472-.348.544-.42.582-.049.025-.116-.003-.17-.077-.069-.092-.135-.242-.264-.589a22 22 0 0 0-.363-.977c-.034-.046-.102-.055-.173-.018-.115.06-.364.432-.772 1.162l-.272-.712c-.204-.519-.255-.69-.27-.842-.018-.168.053-.288.2-.365.072-.037.12-.056.36-.13l.028-.403a1 1 0 0 0-.242.094c-.302.157-.41.31-.591.812-.128.36-.114.46.168 1.155l.886 2.17.29-.337-.473-1.238c.03-.06.072-.127.08-.137.228-.4.383-.62.443-.652.039-.02.09-.002.12.039.042.055.085.154.193.441.24.64.373.94.465 1.064.041.055.104.099.23.154a8 8 0 0 0 .608-1.043zm1.747-.957-.1-.133c-.1.244-.28.727-.56.873-.307.16-.54-.101-.667-.283.088-.116.372-.736.43-.862.101-.244.14-.468-.021-.683-.113-.152-.308-.21-.511-.103-.197.103-.306.274-.408.505-.25.564-.037 1.167.285 1.598.209.28.493.406.827.231.423-.22.64-.837.725-1.143zm-1.228-.748c.246.33-.063.753-.2 1.06-.15-.24-.426-1.001-.114-1.164.12-.063.239.003.314.104zm2.678-.015-.075-.1c-.05.076-.079.13-.094.15-.24.413-.27.454-.348.494-.098.051-.18-.059-.249-.15-.061-.083-.478-1.102-.757-1.855-.29-.786-.302-.894-.06-1.02.071-.037.13-.061.292-.108l.055-.366a1.2 1.2 0 0 0-.267.1c-.22.115-.34.28-.457.615-.104.31-.113.41-.061.612.038.133.194.568.29.798l.676 1.642q.021.046.05.089c.106.142.275.245.44.16.054-.03.185-.283.565-1.06zm1.38-.611-.081-.15c-.166.278-.35.533-.399.56-.06.03-.145-.002-.2-.075-.123-.165-.187-.374-.268-.574l-.264-.671c-.044-.111-.11-.28-.15-.336-.028-.036-.062-.05-.111-.025-.126.066-.464.675-.56.853l.094.136c.081-.126.197-.339.273-.379.06-.031.104.016.134.058.076.1.208.503.305.746.097.242.16.51.313.716.09.119.199.164.286.118.094-.049.162-.141.35-.482.05-.096.073-.146.278-.495zM98 84.287c-.198-.08-.214-.092-.347-.169l-.072-.045a1 1 0 0 1-.04.09c-.069.183-.076.194-.157.35.126.088.205.123.448.213l.078-.232c.02-.035.025-.058.09-.206zm5.064 1.603-.375-.104c.016.297-.063.466-.26.57-.264.137-.582.048-.98-.273-.19-.15-.407-.362-1.065-1.019.194-.598.298-.806.446-.883a.7.7 0 0 1 .268-.07l-.119-.384c-.116-.003-.165.004-.236.04a.5.5 0 0 0-.174.155l-.16.511-.155.508a6 6 0 0 0-.372-.367c-.19-.162-.318-.191-.493-.1-.17.09-.271.25-.445.723l.082.13c.192-.356.213-.38.322-.436.181-.095.336-.01.777.429l-.1.244c-.242.534-.247.536-.29.673-.033.139-.024.223.04.483l.359.144c.014 0 .03-.01.03-.01.015 0 .026-.007.026-.007s.024-.018.037-.032c-.186-.463-.176-.89.023-1.369.596.677.753.837.993 1.005.35.244.85.251 1.305.014.307-.16.451-.325.516-.575z" style="font-size:37.3333px;line-height:0;font-family:&quot;TeX Gyre Chorus&quot;;-inkscape-font-specification:&quot;TeX Gyre Chorus, Normal&quot;;fill:#a04;stroke:#000;stroke-width:.187445;stroke-linejoin:bevel" aria-label="helix" transform="translate(-83.916 -82.56)"/>
  <path d="M91.654 106.188c-.154-.213-.381-.287-.58-.186-.183.092-.287.24-.602.849-.044-.124-.081-.206-.094-.244-.24-.561-.24-.561-.253-.611a2 2 0 0 1-.114-.512c-.003-.181.067-.274.277-.38l.155-.078.082-.042.033-.384c-.084.03-.204.085-.259.113-.199.1-.262.202-.495.756-.192.445-.192.445.137 1.265l.512 1.302.31.804.069-.01.086-.215c.188-.032.321-.068.426-.121a.7.7 0 0 0 .28-.281c.07-.124.153-.248.239-.38a.8.8 0 0 0 .165-.545 2.3 2.3 0 0 0-.374-1.1zm0 1.157q.112.577-.252.76c-.11.056-.241.084-.428.097l-.42-1.134c.174-.354.307-.535.434-.6.111-.055.247-.003.347.135.134.185.268.496.318.742zm2.132-2.743-.105.148-.136.177c-.018.028-.052.064-.085.112l.476 1.295c-.345.567-.363.595-.457.642-.071.037-.168-.003-.228-.086q-.111-.151-.311-.721c-.193-.528-.303-.826-.333-.868a.08.08 0 0 0-.101-.025c-.061.031-.301.368-.598.834l.074.133c.18-.242.223-.296.284-.327.055-.028.103-.014.133.027.06.084.122.242.284.716.159.47.205.586.292.706.107.148.27.217.38.16.106-.052.387-.498.665-1.044.403.953.403.953.46 1.158.083.28-.03.458-.39.64-.16.081-.295.124-.668.225l.006.427c.185-.069.438-.178.632-.276.387-.196.544-.396.655-.838.113-.45.098-.511-.254-1.363-.346-.843-.492-1.243-.675-1.852zm2.643.646-.072-.121c-.27.42-.39.589-.467.628-.072.036-.248-.039-.318-.136-.047-.065-.21-.469-.419-1.027q.115-.066.157-.086l.218-.116a2 2 0 0 0 .156-.098l.113-.241-.708.359-.32-.862c-.072.1-.107.136-.166.21-.025.039-.06.075-.09.116l-.058.067.264.656q-.07.044-.096.055l-.133.068s-.038.02-.08.046c-.037.063-.042.066-.09.179l-.046.092.133-.067.254-.129.122-.061c.45 1.175.45 1.175.554 1.318.107.148.34.251.446.198.121-.062.357-.446.646-1.048zm1.869-.979-.098-.134c-.104.243-.292.724-.574.867-.31.156-.538-.107-.663-.29.09-.116.384-.732.445-.858.104-.242.146-.466-.011-.683-.11-.153-.305-.212-.51-.109-.199.101-.31.271-.415.502-.259.56-.055 1.165.26 1.6.204.282.486.411.823.24.426-.215.653-.83.743-1.135zm-1.217-.761c.241.333-.075.752-.216 1.058-.146-.243-.41-1.006-.096-1.166.122-.061.239.006.312.108zm2.161-1.43c-.19-.055-.33-.048-.484.03-.404.205-.632.87-.411 1.175.104.144.273.21.573.228.394.022.463.044.546.16.12.166.007.49-.209.599a.39.39 0 0 1-.384-.02c-.09-.05-.15-.114-.27-.268l-.073.138q-.044.068-.09.147s-.028.046-.06.106c.025.044.046.084.066.112.144.199.41.254.654.13.17-.087.365-.267.482-.44.212-.323.24-.66.073-.89-.124-.172-.19-.189-.616-.194-.262-.007-.403-.055-.49-.175-.114-.158-.054-.378.134-.473.127-.064.258-.061.473.007.078-.248.078-.248.086-.372z" style="font-size:37.3333px;line-height:0;font-family:&quot;TeX Gyre Chorus&quot;;-inkscape-font-specification:&quot;TeX Gyre Chorus, Normal&quot;;fill:#a04;stroke:#000;stroke-width:.187445;stroke-linejoin:bevel" aria-label="bytes" transform="translate(-83.916 -82.56)"/>
</svg>
